<?xml version="1.0" encoding="UTF-8" standalone="no"?>
<!-- Created with Inkscape (http://www.inkscape.org/) -->

<svg
   width="1080"
   height="1080"
   viewBox="0 0 1080 1080"
   version="1.1"
   id="svg1"
   xml:space="preserve"
   inkscape:version="1.4 (e7c3feb100, 2024-10-09)"
   sodipodi:docname="dashbeam.svg"
   xmlns:inkscape="http://www.inkscape.org/namespaces/inkscape"
   xmlns:sodipodi="http://sodipodi.sourceforge.net/DTD/sodipodi-0.dtd"
   xmlns:xlink="http://www.w3.org/1999/xlink"
   xmlns="http://www.w3.org/2000/svg"
   xmlns:svg="http://www.w3.org/2000/svg"><sodipodi:namedview
     id="namedview1"
     pagecolor="#ffffff"
     bordercolor="#999999"
     borderopacity="1"
     inkscape:showpageshadow="2"
     inkscape:pageopacity="0"
     inkscape:pagecheckerboard="0"
     inkscape:deskcolor="#d1d1d1"
     inkscape:document-units="px"
     inkscape:zoom="0.37407407"
     inkscape:cx="681.68317"
     inkscape:cy="200.49505"
     inkscape:window-width="1920"
     inkscape:window-height="1010"
     inkscape:window-x="0"
     inkscape:window-y="0"
     inkscape:window-maximized="1"
     inkscape:current-layer="layer1" /><defs
     id="defs1"><linearGradient
       id="linearGradient2"
       inkscape:collect="always"><stop
         style="stop-color:#ff6600;stop-opacity:0.44567445;"
         offset="0"
         id="stop15" /><stop
         style="stop-color:#ff6600;stop-opacity:0.16437264;"
         offset="1"
         id="stop16" /></linearGradient><linearGradient
       id="linearGradient12"
       inkscape:collect="always"><stop
         style="stop-color:#121212;stop-opacity:1;"
         offset="0.4370555"
         id="stop7" /><stop
         style="stop-color:#131313;stop-opacity:1;"
         offset="0.70895123"
         id="stop8" /><stop
         style="stop-color:#0b0b0b;stop-opacity:1;"
         offset="0.93066621"
         id="stop11" /><stop
         style="stop-color:#2e2e2e;stop-opacity:1;"
         offset="0.99852151"
         id="stop12" /></linearGradient><linearGradient
       id="linearGradient6"
       inkscape:collect="always"><stop
         style="stop-color:#000000;stop-opacity:1;"
         offset="0.4370555"
         id="stop3" /><stop
         style="stop-color:#131313;stop-opacity:1;"
         offset="0.70895123"
         id="stop4" /><stop
         style="stop-color:#341405;stop-opacity:1;"
         offset="0.9153049"
         id="stop5" /><stop
         style="stop-color:#be640c;stop-opacity:1;"
         offset="0.99852151"
         id="stop6" /></linearGradient><linearGradient
       id="linearGradient9"
       inkscape:collect="always"><stop
         style="stop-color:#ffffff;stop-opacity:1;"
         offset="0.90728068"
         id="stop9" /><stop
         style="stop-color:#c0c0c0;stop-opacity:0;"
         offset="1"
         id="stop10" /></linearGradient><rect
       x="344.36063"
       y="624.22583"
       width="126.18202"
       height="34.301823"
       id="rect1" /><inkscape:path-effect
       effect="skeletal"
       id="path-effect15"
       is_visible="true"
       lpeversion="1"
       pattern="#path1-6"
       copytype="repeated_stretched"
       prop_scale="0.29"
       scale_y_rel="false"
       spacing="1"
       normal_offset="0"
       tang_offset="78"
       prop_units="false"
       vertical_pattern="false"
       hide_knot="false"
       fuse_tolerance="0" /><inkscape:path-effect
       effect="skeletal"
       id="path-effect14"
       is_visible="true"
       lpeversion="1"
       pattern="m -71.239425,-66.507981 h 1.000004"
       copytype="repeated"
       prop_scale="1"
       scale_y_rel="false"
       spacing="0"
       normal_offset="0"
       tang_offset="0"
       prop_units="false"
       vertical_pattern="false"
       hide_knot="false"
       fuse_tolerance="0" /><linearGradient
       id="linearGradient1"
       inkscape:collect="always"><stop
         style="stop-color:#000000;stop-opacity:1;"
         offset="0.4370555"
         id="stop1" /><stop
         style="stop-color:#131313;stop-opacity:1;"
         offset="0.70895123"
         id="stop13" /><stop
         style="stop-color:#0b0b0b;stop-opacity:1;"
         offset="0.93066621"
         id="stop14" /><stop
         style="stop-color:#8e8e8e;stop-opacity:1;"
         offset="0.99852151"
         id="stop2" /></linearGradient><radialGradient
       inkscape:collect="always"
       xlink:href="#linearGradient1"
       id="radialGradient2"
       cx="105"
       cy="148.5"
       fx="105"
       fy="148.5"
       r="50"
       gradientUnits="userSpaceOnUse"
       gradientTransform="matrix(10.800001,0,0,10.800001,-594.00012,-1063.8)" /><radialGradient
       inkscape:collect="always"
       xlink:href="#linearGradient9"
       id="radialGradient10"
       cx="105"
       cy="148.5"
       fx="105"
       fy="148.5"
       r="52.602402"
       gradientTransform="matrix(1,0,0,0.99992756,0,0.01075761)"
       gradientUnits="userSpaceOnUse" /><radialGradient
       inkscape:collect="always"
       xlink:href="#linearGradient6"
       id="radialGradient3"
       gradientUnits="userSpaceOnUse"
       gradientTransform="matrix(10.800001,0,0,10.800001,-594.00014,-1063.8)"
       cx="105"
       cy="148.5"
       fx="105"
       fy="148.5"
       r="50" /><radialGradient
       inkscape:collect="always"
       xlink:href="#linearGradient12"
       id="radialGradient4"
       gradientUnits="userSpaceOnUse"
       gradientTransform="matrix(6.5987979,0,0,6.5987979,-152.873,-439.92069)"
       cx="105"
       cy="148.5"
       fx="105"
       fy="148.5"
       r="50" /><linearGradient
       inkscape:collect="always"
       xlink:href="#linearGradient2"
       id="linearGradient16"
       x1="344.63477"
       y1="631.7182"
       x2="362.52353"
       y2="631.7182"
       gradientUnits="userSpaceOnUse"
       gradientTransform="matrix(25.051236,0,0,25.051236,-8314.8909,-15282.408)" /></defs><g
     inkscape:label="Layer 1"
     inkscape:groupmode="layer"
     id="layer1"><path
       d="m 69.929956,79.231112 v 14.405011 h 1.653868 V 79.231112 Z m 3.284338,0 v 1.932933 h 0.761061 v -1.932933 z m 2.391501,0 v 1.932933 h 0.762551 v -1.932933 z m 2.392991,0 v 5.10748 h 0.761091 v -5.10748 z m 2.391531,0 v 1.932933 h 0.762551 v -1.932933 z m 2.392991,0 v 1.932933 h 0.762551 v -1.932933 z"
       id="path1-6"
       style="display:none;stroke-width:0.875484"
       transform="matrix(6.5620204,0,0,11.955369,-776.93526,-1082.8851)" /><g
       id="g1"><circle
         style="fill:url(#radialGradient2);fill-opacity:1;stroke:none;stroke-width:2.86199;stroke-linejoin:bevel;stroke-opacity:0.719264"
         id="circle1"
         cy="540"
         cx="540"
         inkscape:export-filename="race_tach.png"
         inkscape:export-xdpi="520.19202"
         inkscape:export-ydpi="520.19202"
         r="540.00006" /><path
         style="fill:url(#radialGradient3);fill-opacity:1;stroke:none;stroke-width:2.86199;stroke-linejoin:bevel;stroke-opacity:0.719264"
         id="circle2"
         inkscape:export-filename="../../Development/EngineSound/lfa.png"
         inkscape:export-xdpi="520.19202"
         inkscape:export-ydpi="520.19202"
         sodipodi:type="arc"
         sodipodi:cx="540"
         sodipodi:cy="540"
         sodipodi:rx="540.00006"
         sodipodi:ry="540.00006"
         sodipodi:start="5.4078376"
         sodipodi:end="0"
         sodipodi:arc-type="slice"
         d="M 885.99421,125.40613 A 540.00006,540.00006 0 0 1 1080.0001,540 H 540 Z" /><path
         style="fill:url(#radialGradient10);stroke:none;stroke-width:0.2647;stroke-linejoin:bevel;stroke-dasharray:none;stroke-opacity:1"
         id="path1"
         d="m 105.57198,201.10045 -0.065,-5.20764 c -0.16891,0.001 -0.3379,0.001 -0.50697,4e-5 -0.19976,0.001 -0.39942,0.001 -0.59895,-7.4e-4 l -0.0768,5.20638 c 0.22503,0.005 0.45028,0.007 0.67573,0.009 0.19081,-0.001 0.38147,-0.003 0.57198,-0.007 z m -2.47434,-0.0424 0.0289,-0.69649 c -0.18763,-0.008 -0.3751,-0.0179 -0.56241,-0.0286 l -0.0374,0.69541 c 0.19015,0.011 0.38048,0.0209 0.57098,0.0297 z m -1.7906,-0.11624 0.0556,-0.69291 c -0.18692,-0.0155 -0.37366,-0.0321 -0.5602,-0.0499 l -0.064,0.69167 c 0.18934,0.0181 0.37889,0.0352 0.56862,0.0511 z m -1.780337,-0.18286 0.216327,-1.82005 c -0.180821,-0.0216 -0.361451,-0.0444 -0.541884,-0.0681 l -0.238082,1.81629 c 0.187661,0.0251 0.375543,0.049 0.563639,0.0719 z m -1.766572,-0.24796 0.107557,-0.68415 c -0.184338,-0.0292 -0.368448,-0.0596 -0.552324,-0.091 l -0.115634,0.68255 c 0.186559,0.0319 0.373362,0.0628 0.560401,0.0926 z m -1.753647,-0.31205 0.13272,-0.67895 c -0.182837,-0.0359 -0.365425,-0.0729 -0.547756,-0.11089 l -0.140625,0.67719 c 0.184956,0.0386 0.370179,0.0762 0.555661,0.11265 z m -1.614783,-0.34588 1.159628,-5.02027 c -0.356998,-0.0822 -0.713,-0.16892 -1.067933,-0.26016 l -1.284301,4.98857 c 0.39617,0.10213 0.79373,0.19944 1.192606,0.29186 z m -2.360182,-0.60789 0.188573,-0.66494 c -0.178505,-0.0506 -0.35671,-0.10224 -0.534609,-0.15485 l -0.196068,0.66278 c 0.180387,0.0533 0.361091,0.10568 0.542104,0.15701 z m -1.697023,-0.51347 0.21194,-0.65797 c -0.176894,-0.0569 -0.353466,-0.11483 -0.529706,-0.1737 l -0.219279,0.65564 c 0.178678,0.0597 0.357695,0.11834 0.537045,0.17603 z m -1.678425,-0.57207 0.620377,-1.71873 c -0.170529,-0.0615 -0.340729,-0.12396 -0.510591,-0.18734 l -0.639275,1.71211 c 0.176138,0.0656 0.352637,0.13026 0.529489,0.19396 z m -1.656444,-0.62866 0.257071,-0.6424 c -0.172554,-0.0689 -0.344741,-0.13875 -0.516553,-0.20952 l -0.264064,0.63972 c 0.174133,0.0717 0.348651,0.14241 0.523546,0.2122 z m -1.635171,-0.68468 0.278834,-0.63381 c -0.170175,-0.0747 -0.339959,-0.1503 -0.509346,-0.22681 l -0.285655,0.63095 c 0.171651,0.0775 0.343709,0.15403 0.516167,0.22967 z m -1.497346,-0.68452 2.224984,-4.66028 c -0.332817,-0.15946 -0.663979,-0.32283 -0.993412,-0.49003 l -2.332139,4.61106 c 0.364831,0.18394 0.731711,0.36371 1.100567,0.53925 z m -2.173533,-1.09529 0.32686,-0.61197 c -0.163846,-0.0873 -0.327253,-0.17547 -0.490213,-0.26448 l -0.333273,0.60873 c 0.165088,0.0901 0.330633,0.17935 0.496626,0.26772 z m -1.551296,-0.85856 0.346828,-0.6016 c -0.161328,-0.0928 -0.322192,-0.18644 -0.482586,-0.2809 l -0.353081,0.59818 c 0.162468,0.0956 0.325417,0.19039 0.488839,0.28432 z m -1.524327,-0.90909 0.967808,-1.56079 c -0.154706,-0.0959 -0.308942,-0.19249 -0.462703,-0.28993 l -0.983847,1.55131 c 0.159083,0.10062 0.318666,0.20042 0.478742,0.29941 z m -1.494164,-0.9572 0.385158,-0.57923 c -0.155229,-0.10302 -0.309949,-0.20684 -0.464154,-0.31145 l -0.391068,0.57546 c 0.156166,0.10587 0.312856,0.21095 0.470064,0.31522 z m -1.464512,-1.00514 0.403519,-0.56724 c -0.151969,-0.10793 -0.303407,-0.21663 -0.454307,-0.3261 l -0.409257,0.56329 c 0.152804,0.11079 0.306155,0.22081 0.460045,0.33005 z m -1.33145,-0.97469 3.130651,-4.1406 c -0.296615,-0.22472 -0.590915,-0.4527 -0.882827,-0.68384 l -3.220287,4.07387 c 0.32147,0.25371 0.645648,0.50393 0.972463,0.75057 z m -1.915264,-1.51107 0.443719,-0.53757 c -0.143655,-0.11846 -0.286731,-0.23764 -0.42922,-0.35752 l -0.44905,0.53324 c 0.144257,0.12134 0.28911,0.24196 0.434551,0.36185 z m -1.353419,-1.1515 0.460288,-0.5238 c -0.140218,-0.12313 -0.279832,-0.24697 -0.418835,-0.37149 l -0.465457,0.5193 c 0.140717,0.12603 0.282054,0.25136 0.424004,0.37599 z m -1.318045,-1.19393 1.25862,-1.34623 c -0.133351,-0.12465 -0.266092,-0.24996 -0.398218,-0.37593 l -1.2718,1.33389 c 0.136495,0.1301 0.27363,0.25952 0.411398,0.38827 z m -1.279733,-1.23359 0.491816,-0.49463 c -0.132359,-0.1316 -0.26407,-0.26385 -0.395126,-0.39676 l -0.496642,0.48979 c 0.132655,0.13452 0.265975,0.26839 0.399952,0.4016 z m -1.241669,-1.27342 0.506776,-0.47923 c -0.12822,-0.13563 -0.255769,-0.27189 -0.38264,-0.40877 l -0.51143,0.47421 c 0.128414,0.13856 0.257514,0.2765 0.387294,0.41379 z m -1.117097,-1.2164 3.876629,-3.46124 c -0.248391,-0.27796 -0.493807,-0.55851 -0.736175,-0.84158 l -3.948746,3.37699 c 0.266087,0.31148 0.535542,0.62011 0.808292,0.92583 z m -1.585372,-1.85523 0.539149,-0.44174 c -0.117932,-0.14409 -0.235145,-0.28874 -0.351632,-0.43397 l -0.543399,0.43634 c 0.117895,0.14704 0.236524,0.29349 0.355882,0.43937 z m -1.103391,-1.39229 0.552318,-0.42457 c -0.113565,-0.14793 -0.226386,-0.29641 -0.338455,-0.44544 l -0.556404,0.41898 c 0.113422,0.15091 0.227605,0.30125 0.342541,0.45103 z m -1.059581,-1.42659 1.492811,-1.07504 c -0.106463,-0.14793 -0.212177,-0.29638 -0.317136,-0.44533 l -1.503132,1.05985 c 0.108375,0.15404 0.217529,0.30755 0.327457,0.46052 z m -1.013151,-1.45782 0.577047,-0.3886 c -0.103947,-0.15464 -0.207106,-0.30978 -0.309469,-0.46544 l -0.580789,0.38267 c 0.103601,0.15764 0.208007,0.31477 0.313211,0.47137 z m -0.966643,-1.48952 0.588605,-0.3698 c -0.09893,-0.15778 -0.197044,-0.31605 -0.294343,-0.47481 l -0.592175,0.3637 c 0.09848,0.1608 0.197786,0.3211 0.297913,0.48091 z m -0.854284,-1.40965 4.462916,-2.62218 c -0.188145,-0.31918 -0.372655,-0.64029 -0.553458,-0.96326 l -4.517515,2.52042 c 0.198683,0.35721 0.401392,0.71224 0.608057,1.06502 z m -1.183862,-2.12777 0.613152,-0.32449 c -0.08668,-0.16417 -0.172494,-0.32878 -0.257447,-0.49381 l -0.616319,0.318 c 0.086,0.1672 0.172873,0.33397 0.260614,0.5003 z m -0.801212,-1.58093 0.622922,-0.30391 c -0.08137,-0.16718 -0.161854,-0.33477 -0.241447,-0.50277 l -0.625924,0.29725 c 0.08058,0.17023 0.16207,0.34004 0.244449,0.50943 z m -0.748933,-1.60706 1.670382,-0.74724 c -0.07404,-0.16567 -0.147197,-0.33172 -0.219456,-0.49814 l -1.677845,0.72919 c 0.07472,0.17246 0.150365,0.34453 0.226919,0.51619 z m -0.694417,-1.62991 0.64085,-0.26114 c -0.06999,-0.17213 -0.139056,-0.34462 -0.207183,-0.51748 l -0.643508,0.25412 c 0.069,0.17521 0.138954,0.35005 0.209841,0.5245 z m -0.639434,-1.65343 0.649007,-0.23894 c -0.06409,-0.17439 -0.127235,-0.34913 -0.189418,-0.52421 l -0.651493,0.23175 c 0.063,0.17749 0.126973,0.35463 0.191904,0.5314 z m -0.543013,-1.55444 4.889515,-1.62344 c -0.115877,-0.34838 -0.22746,-0.69802 -0.334677,-1.04887 l -4.926594,1.50416 c 0.119256,0.39093 0.243199,0.78034 0.371756,1.16815 z m -0.71073,-2.3287 0.665727,-0.1858 c -0.04989,-0.17873 -0.09878,-0.35775 -0.146666,-0.53706 l -0.667812,0.17823 c 0.04857,0.18185 0.09816,0.36339 0.148751,0.54463 z m -0.446882,-1.71741 0.672097,-0.16183 c -0.04363,-0.18088 -0.08624,-0.36204 -0.12781,-0.54346 l -0.674016,0.15408 c 0.04221,0.18402 0.08545,0.36776 0.129729,0.55121 z m -0.386102,-1.73535 1.791333,-0.36282 c -0.03609,-0.17787 -0.07115,-0.35599 -0.10518,-0.53434 l -1.795938,0.34191 c 0.03554,0.18534 0.07214,0.37043 0.109785,0.55525 z m -0.323532,-1.74984 0.683225,-0.11226 c -0.0305,-0.18407 -0.05992,-0.36838 -0.08827,-0.5529 l -0.684799,0.10416 c 0.02886,0.18723 0.05882,0.37424 0.08984,0.561 z m -0.260042,-1.76516 0.687981,-0.0867 c -0.02372,-0.18545 -0.04634,-0.37112 -0.06787,-0.55699 l -0.689382,0.0784 c 0.02198,0.18864 0.04508,0.37707 0.06927,0.56527 z M 52.598737,152.65 57.75516,152.18499 c -0.03159,-0.36555 -0.05822,-0.7317 -0.07983,-1.0984 l -5.175984,0.3282 c 0.02781,0.41262 0.06096,0.82439 0.09939,1.23521 z m -0.165978,-2.458 0.696874,-0.0257 c -0.0076,-0.18775 -0.014,-0.37566 -0.01929,-0.56371 l -0.697878,0.017 c 0.0056,0.19096 0.01238,0.38175 0.02029,0.57237 z m -0.03916,-1.80171 0.699512,0.002 c 0.0012,-0.18894 0.0036,-0.37774 0.0072,-0.56639 l -0.698603,-0.0104 c -0.0039,0.19156 -0.0066,0.38328 -0.0081,0.57515 z m 0.04878,-1.80173 1.840325,0.0766 c 0.0079,-0.18292 0.01685,-0.3657 0.02695,-0.54833 l -1.837472,-0.0993 c -0.01107,0.19016 -0.02101,0.38049 -0.02981,0.57099 z m 0.116578,-1.79056 0.692896,0.0558 c 0.01554,-0.18692 0.0322,-0.37365 0.04996,-0.56018 l -0.691643,-0.0642 c -0.01819,0.18933 -0.03527,0.37887 -0.05121,0.5686 z m 0.183201,-1.78028 0.688777,0.082 c 0.02248,-0.18569 0.04606,-0.37118 0.07073,-0.55645 l -0.687352,-0.0902 c -0.02515,0.18801 -0.0492,0.37625 -0.07215,0.5647 z m 0.228589,-1.64186 5.100948,0.78909 c 0.05521,-0.36215 0.115191,-0.72351 0.179881,-1.08401 l -5.0748,-0.91931 c -0.07373,0.40359 -0.142426,0.80835 -0.206029,1.21423 z m 0.438663,-2.40435 0.677249,0.14034 c 0.03786,-0.182 0.07676,-0.36374 0.116685,-0.54521 l -0.675431,-0.14817 c -0.04055,0.18408 -0.08005,0.36843 -0.118503,0.55304 z m 0.393365,-1.73228 0.671352,0.16477 c 0.04441,-0.18067 0.08984,-0.36106 0.136289,-0.54116 l -0.669358,-0.17245 c -0.04712,0.18265 -0.09322,0.3656 -0.138283,0.54884 z m 0.454508,-1.71634 1.756927,0.4986 c 0.04949,-0.17439 0.09996,-0.34849 0.1514,-0.5223 l -1.751215,-0.51839 c -0.05337,0.18038 -0.105744,0.36108 -0.157112,0.54209 z m 0.51378,-1.69694 0.657935,0.21205 c 0.05695,-0.17688 0.114885,-0.35344 0.173787,-0.52967 l -0.655598,-0.2194 c -0.05969,0.17867 -0.1184,0.35768 -0.176124,0.53702 z m 0.572364,-1.67833 0.650415,0.2349 c 0.06302,-0.17478 0.126992,-0.34922 0.191913,-0.5233 l -0.647905,-0.24206 c -0.06577,0.17646 -0.130577,0.35328 -0.194423,0.53046 z m 0.582558,-1.53976 4.791515,1.905 c 0.136295,-0.34177 0.276709,-0.6821 0.421168,-1.0209 l -4.747848,-2.01771 c -0.159335,0.37606 -0.314305,0.75395 -0.464835,1.13361 z m 0.94874,-2.24037 0.63106,0.2854 c 0.07629,-0.16908 0.153486,-0.33777 0.231573,-0.50606 l -0.62816,-0.29216 c -0.07906,0.17053 -0.157222,0.34148 -0.234473,0.51282 z m 0.754962,-1.60307 0.621763,0.30645 c 0.08204,-0.16686 0.164966,-0.33329 0.248765,-0.4993 l -0.618686,-0.31305 c -0.08483,0.1682 -0.168783,0.33684 -0.251842,0.5059 z m 0.80805,-1.57875 1.616909,0.86395 c 0.08558,-0.16032 0.171996,-0.32021 0.259249,-0.47966 l -1.608338,-0.88089 c -0.09013,0.16508 -0.17941,0.33061 -0.26782,0.4966 z m 0.85883,-1.55118 0.601546,0.34693 c 0.09283,-0.16132 0.186491,-0.32216 0.280985,-0.48254 l -0.598125,-0.35318 c -0.09564,0.16245 -0.190448,0.32538 -0.284406,0.48879 z m 0.909345,-1.52418 0.590624,0.36636 c 0.09801,-0.15833 0.196838,-0.31617 0.296471,-0.47353 l -0.58703,-0.37244 c -0.100841,0.15937 -0.200865,0.31924 -0.300065,0.47961 z m 0.888067,-1.38921 4.322393,2.86122 c 0.205362,-0.30937 0.414183,-0.61664 0.62639,-0.92173 l -4.261207,-2.95641 c -0.232923,0.3365 -0.462139,0.6755 -0.687576,1.01692 z m 1.387197,-2.00477 0.563443,0.40904 c 0.109197,-0.15064 0.219154,-0.30075 0.329865,-0.45032 l -0.55946,-0.41472 c -0.112048,0.15145 -0.223333,0.30345 -0.333848,0.456 z m 1.064408,-1.4217 0.550747,0.42668 c 0.114131,-0.1475 0.229004,-0.29444 0.344611,-0.44081 l -0.546586,-0.4322 c -0.117003,0.1482 -0.233263,0.29698 -0.348772,0.44633 z m 1.109409,-1.389 1.420271,1.17269 c 0.116134,-0.14071 0.232971,-0.28086 0.350502,-0.42043 l -1.408843,-1.18677 c -0.121364,0.14425 -0.24201,0.28909 -0.36193,0.43451 z m 1.151729,-1.35325 0.523729,0.46037 c 0.123156,-0.1402 0.24701,-0.27979 0.371553,-0.41878 l -0.519223,-0.46554 c -0.126055,0.1407 -0.25141,0.28202 -0.376059,0.42395 z m 1.194142,-1.31786 0.509406,0.47641 c 0.127461,-0.13634 0.255597,-0.27205 0.3844,-0.40713 l -0.504728,-0.4814 c -0.130372,0.13673 -0.260067,0.27411 -0.389078,0.41212 z m 1.145118,-1.1902 3.693581,3.65776 c 0.262407,-0.26496 0.527613,-0.52715 0.795546,-0.78651 l -3.614876,-3.73541 c -0.294488,0.28492 -0.585929,0.573 -0.874251,0.86416 z m 1.754033,-1.69755 0.474398,0.51126 c 0.136568,-0.12667 0.273758,-0.25267 0.411562,-0.37799 l -0.469334,-0.51585 c -0.139501,0.12684 -0.278378,0.25437 -0.416626,0.38258 z m 1.321704,-1.18818 0.458302,0.5255 c 0.140678,-0.1226 0.281956,-0.2445 0.423829,-0.3657 l -0.453057,-0.52993 c -0.143631,0.12266 -0.286658,0.24604 -0.429074,0.37013 z m 1.358584,-1.14705 1.167013,1.4248 c 0.14116,-0.11557 0.282881,-0.23044 0.425158,-0.3446 l -1.152727,-1.43602 c -0.147063,0.11787 -0.293546,0.23648 -0.439444,0.35582 z m 1.392476,-1.10318 0.424484,0.55238 c 0.147944,-0.11354 0.296444,-0.22634 0.445494,-0.33838 l -0.418895,-0.55647 c -0.150922,0.1134 -0.301285,0.22756 -0.451083,0.34247 z m 1.426756,-1.05935 0.40676,0.56502 c 0.151368,-0.1088 0.303271,-0.21684 0.455701,-0.3241 L 75.860997,105.521 c -0.154359,0.10856 -0.308182,0.21789 -0.461462,0.32801 z m 1.353712,-0.94273 2.905079,4.2946 c 0.30743,-0.20852 0.617,-0.41361 0.928637,-0.61521 l -2.808856,-4.35473 c -0.344032,0.22132 -0.685676,0.44646 -1.02486,0.67534 z m 2.049248,-1.31871 0.363924,0.59204 c 0.158409,-0.0972 0.317298,-0.19352 0.476662,-0.28906 L 79.285302,103.295 c -0.161421,0.0967 -0.322359,0.19422 -0.482807,0.29257 z m 1.526848,-0.90251 0.344431,0.60289 c 0.16168,-0.0922 0.323821,-0.18349 0.486417,-0.27396 l -0.338101,-0.60623 c -0.164714,0.0916 -0.328966,0.18401 -0.492747,0.2773 z m 1.555576,-0.85292 0.857136,1.62029 c 0.160652,-0.0849 0.321726,-0.16896 0.483216,-0.25217 l -0.83999,-1.62866 c -0.167229,0.086 -0.334019,0.17282 -0.500362,0.26054 z m 1.581073,-0.80096 0.303811,0.62297 c 0.167187,-0.0813 0.334791,-0.1618 0.502805,-0.24136 l -0.297138,-0.62597 c -0.170247,0.0805 -0.340075,0.16201 -0.509478,0.24436 z m 1.607186,-0.74866 0.282686,0.6322 c 0.169732,-0.0757 0.339859,-0.15053 0.510373,-0.22443 l -0.27584,-0.63504 c -0.172805,0.0748 -0.345214,0.15059 -0.517219,0.22727 z m 1.513846,-0.646797 1.956889,4.771747 c 0.340431,-0.14006 0.682342,-0.27603 1.025662,-0.40784 l -1.843146,-4.814369 c -0.381554,0.145701 -0.76138,0.295879 -1.139405,0.450462 z m 2.272844,-0.868254 0.232023,0.651401 c 0.174716,-0.06213 0.349773,-0.123313 0.525166,-0.183531 L 89.392261,98.58151 c -0.177811,0.06102 -0.355278,0.123007 -0.532393,0.185959 z m 1.679842,-0.564693 0.20913,0.658848 c 0.17714,-0.05618 0.354602,-0.111374 0.532377,-0.165583 L 91.0795,98.034932 c -0.180255,0.05495 -0.360188,0.110904 -0.53979,0.167844 z m 1.700384,-0.506607 0.490638,1.759169 c 0.174613,-0.0487 0.349508,-0.09642 0.524678,-0.143151 l -0.470633,-1.76468 c -0.181863,0.04854 -0.363426,0.0981 -0.544683,0.148662 z m 1.717518,-0.446583 0.16171,0.672128 c 0.180889,-0.0436 0.362054,-0.08617 0.543488,-0.127712 l -0.153953,-0.674046 c -0.184029,0.04217 -0.36778,0.08538 -0.551245,0.12963 z m 1.735434,-0.38579 0.137183,0.677961 c 0.182554,-0.0371 0.365362,-0.07315 0.548416,-0.108143 l -0.129254,-0.679706 c -0.185707,0.03557 -0.371158,0.0722 -0.556345,0.109888 z m 1.625522,-0.302403 0.849008,5.089207 c 0.36141,-0.0596 0.723642,-0.1144 1.086622,-0.16441 l -0.717747,-5.114311 c -0.407054,0.05806 -0.81304,0.121254 -1.217883,0.189514 z m 2.424817,-0.346176 0.07869,0.689332 c 0.185491,-0.02157 0.371181,-0.04204 0.557071,-0.06141 l -0.0704,-0.690678 c -0.18867,0.01981 -0.377133,0.04073 -0.565385,0.06275 z m 1.780685,-0.174721 0.0524,0.693379 c 0.18706,-0.01465 0.3743,-0.02818 0.56171,-0.04058 l -0.0439,-0.694556 c -0.19026,0.01278 -0.38033,0.02671 -0.57021,0.04176 z m 1.79301,-0.108113 0.0675,1.841425 c 0.18304,-0.007 0.36622,-0.01282 0.54954,-0.01753 l -0.0447,-1.844076 c -0.19097,0.0056 -0.38177,0.01231 -0.57241,0.02018 z m 1.80177,-0.03871 -0.002,0.699499 c 0.18893,0.0013 0.37772,0.0037 0.56637,0.0073 l 0.0106,-0.698588 c -0.19156,-0.0039 -0.38327,-0.0066 -0.57514,-0.0082 z m 1.80168,0.04913 -0.0291,0.696456 c 0.18799,0.0085 0.37582,0.01813 0.56348,0.0289 l 0.0377,-0.695374 c -0.19051,-0.01114 -0.3812,-0.02113 -0.57207,-0.02998 z m 1.66409,0.106436 -0.40256,5.165624 c 0.36609,0.027 0.73161,0.059 1.09647,0.096 l 0.53832,-5.145019 c -0.4098,-0.04412 -0.82056,-0.08301 -1.23223,-0.116585 z m 2.44133,0.262265 -0.0899,0.687406 c 0.18493,0.02454 0.36965,0.05016 0.55414,0.07686 l 0.0981,-0.68593 c -0.18721,-0.0272 -0.37465,-0.05331 -0.56231,-0.07833 z m 1.76232,0.268028 -0.11546,0.682584 c 0.18389,0.03134 0.36754,0.06375 0.55094,0.09722 l 0.12349,-0.680934 c -0.18607,-0.03403 -0.3724,-0.06699 -0.55897,-0.09887 z m 1.74901,0.331714 -0.37113,1.789453 c 0.17768,0.03691 0.35513,0.07485 0.53233,0.1138 l 0.39184,-1.784646 c -0.18408,-0.04058 -0.36842,-0.08012 -0.55304,-0.118607 z m 1.73223,0.393681 -0.1649,0.671321 c 0.18066,0.04444 0.36104,0.08991 0.54113,0.136386 l 0.17258,-0.669326 c -0.18264,-0.04715 -0.36558,-0.09328 -0.54881,-0.138381 z m 1.71624,0.454813 -0.18881,0.664878 c 0.17883,0.05078 0.35737,0.10257 0.53559,0.155348 l 0.19632,-0.662711 c -0.18071,-0.05351 -0.36175,-0.106016 -0.5431,-0.157515 z m 1.57733,0.475745 -1.56902,4.906748 c 0.34952,0.11192 0.69781,0.22818 1.04478,0.34868 l 1.68727,-4.86862 c -0.38607,-0.133535 -0.77377,-0.262495 -1.16303,-0.386808 z m 2.30002,0.795015 -0.24179,0.648 c 0.17377,0.06472 0.34719,0.130393 0.52025,0.196999 l 0.24889,-0.645443 c -0.17542,-0.06747 -0.3512,-0.133988 -0.52735,-0.199556 z m 1.64962,0.646134 -0.26391,0.639779 c 0.17182,0.0707 0.34328,0.14238 0.51435,0.21496 l 0.27085,-0.637047 c -0.17337,-0.07349 -0.34714,-0.146061 -0.52129,-0.217692 z m 1.62795,0.701779 -0.75441,1.66736 c 0.16536,0.0747 0.33035,0.15038 0.49495,0.2269 l 0.77226,-1.65969 c -0.17052,-0.0791 -0.34146,-0.15729 -0.5128,-0.23457 z m 1.60297,0.75524 -0.30655,0.62171 c 0.16684,0.0821 0.33326,0.16502 0.49926,0.24885 l 0.31314,-0.61864 c -0.16818,-0.0849 -0.3368,-0.16884 -0.50585,-0.25192 z m 1.57862,0.80831 -0.32707,0.61187 c 0.16414,0.0875 0.32784,0.17593 0.49109,0.26517 l 0.33349,-0.60862 c -0.16538,-0.0903 -0.33122,-0.17981 -0.49751,-0.26842 z m 1.44211,0.7966 -2.57579,4.48817 c 0.32093,0.1848 0.63997,0.37327 0.95703,0.56533 l 2.67652,-4.43254 c -0.35032,-0.21093 -0.70293,-0.41794 -1.05776,-0.62096 z m 2.0871,1.25614 -0.37222,0.58717 c 0.15708,0.0994 0.31367,0.19956 0.46977,0.30054 l 0.37823,-0.58353 c -0.15809,-0.1022 -0.31668,-0.2036 -0.47578,-0.30418 z m 1.48476,0.97209 -0.39094,0.57555 c 0.15423,0.10457 0.30794,0.20993 0.46113,0.31606 l 0.39679,-0.57172 c -0.15513,-0.10742 -0.31079,-0.21406 -0.46698,-0.31989 z m 1.45471,1.01965 -1.08107,1.48865 c 0.14751,0.10706 0.2945,0.21486 0.44097,0.32341 l 1.09606,-1.47812 c -0.15144,-0.11208 -0.30343,-0.22339 -0.45596,-0.33394 z m 1.42155,1.06465 -0.42677,0.55068 c 0.14748,0.11416 0.2944,0.22905 0.44076,0.34468 l 0.43229,-0.54652 c -0.14819,-0.11702 -0.29695,-0.23331 -0.44628,-0.34884 z m 1.38882,1.10963 -0.44389,0.53744 c 0.1439,0.11873 0.28722,0.23819 0.42995,0.35836 l 0.44923,-0.5331 c -0.1445,-0.12162 -0.2896,-0.24253 -0.43529,-0.3627 z m 1.25844,1.06899 -3.42287,3.90991 c 0.28032,0.24565 0.55808,0.49431 0.83321,0.7459 l 3.50608,-3.83675 c -0.30255,-0.2763 -0.60804,-0.54935 -0.91642,-0.81906 z m 1.80255,1.64565 -0.48121,0.5049 c 0.13486,0.12851 0.26909,0.25767 0.40268,0.3875 l 0.48615,-0.50018 c -0.13523,-0.13141 -0.2711,-0.26215 -0.40762,-0.39222 z m 1.26775,1.24589 -0.49654,0.48989 c 0.13109,0.13287 0.26152,0.26639 0.39128,0.40055 l 0.50131,-0.48498 c -0.13134,-0.1358 -0.26336,-0.27096 -0.39605,-0.40546 z m 1.22929,1.28535 -1.35112,1.25331 c 0.12413,0.13384 0.2476,0.26828 0.3704,0.40332 l 1.36325,-1.23993 c -0.12682,-0.13952 -0.25434,-0.27842 -0.38253,-0.4167 z m 1.18799,1.32191 -0.52558,0.45822 c 0.12258,0.14069 0.24446,0.28199 0.36563,0.42388 l 0.53001,-0.45297 c -0.12264,-0.14365 -0.246,-0.2867 -0.37006,-0.42913 z m 1.14683,1.35876 -0.53929,0.44157 c 0.11812,0.1444 0.23551,0.28938 0.35218,0.43493 l 0.54354,-0.43615 c -0.11807,-0.14737 -0.23689,-0.29415 -0.35643,-0.44035 z m 1.0263,1.29292 -4.11026,3.17197 c 0.22768,0.29448 0.45215,0.5913 0.67333,0.89041 l 4.17596,-3.08129 c -0.24276,-0.32965 -0.48912,-0.65671 -0.73903,-0.98109 z m 1.44639,1.96354 -0.56878,0.40122 c 0.1071,0.15209 0.21344,0.30471 0.319,0.45785 l 0.57264,-0.39542 c -0.10683,-0.15508 -0.21446,-0.30963 -0.32286,-0.46365 z m 0.99859,1.46755 -0.58071,0.3828 c 0.1024,0.15563 0.204,0.31176 0.3048,0.4684 l 0.5844,-0.37681 c -0.10202,-0.15864 -0.20485,-0.31677 -0.30849,-0.47439 z m 0.95168,1.49886 -1.56454,0.96136 c 0.0952,0.15508 0.18963,0.31062 0.28323,0.46663 l 1.57381,-0.94512 c -0.0967,-0.16144 -0.19418,-0.3224 -0.2925,-0.48287 z m 0.90227,1.52701 -0.60294,0.34433 c 0.0921,0.1617 0.18343,0.32385 0.27387,0.48646 l 0.60629,-0.338 c -0.0916,-0.16473 -0.18396,-0.32899 -0.27722,-0.49279 z m 0.85266,1.55571 -0.61325,0.32429 c 0.0868,0.16451 0.17272,0.32947 0.25778,0.49486 l 0.61642,-0.31778 c -0.0861,-0.16756 -0.17309,-0.33469 -0.26095,-0.50137 z m 0.74572,1.4684 -4.63797,2.27433 c 0.16303,0.33128 0.32218,0.66426 0.47738,0.99885 l 4.68614,-2.16614 c -0.17094,-0.37097 -0.34615,-0.74001 -0.52555,-1.10704 z m 1.0186,2.20981 -0.63493,0.27609 c 0.0738,0.17016 0.14674,0.34069 0.21873,0.51161 l 0.6377,-0.26921 c -0.0729,-0.17322 -0.14674,-0.34605 -0.2215,-0.51849 z m 0.67728,1.63705 -0.64345,0.25428 c 0.0682,0.17284 0.1354,0.34606 0.20168,0.51963 l 0.64606,-0.24721 c -0.0671,-0.17594 -0.13525,-0.35151 -0.20429,-0.5267 z m 0.62188,1.66019 -1.72133,0.61278 c 0.0608,0.17079 0.12058,0.34191 0.17946,0.51335 l 1.72774,-0.59369 c -0.061,-0.17782 -0.12295,-0.35531 -0.18587,-0.53244 z m 0.56441,1.67996 -0.65889,0.20901 c 0.0562,0.17716 0.11131,0.35463 0.16549,0.53241 l 0.66115,-0.2016 c -0.0549,-0.18026 -0.11084,-0.3602 -0.16775,-0.53982 z m 0.50631,1.70048 -0.6658,0.18556 c 0.0499,0.1791 0.0988,0.35849 0.14676,0.53818 l 0.66788,-0.17798 c -0.0486,-0.18222 -0.0982,-0.36414 -0.14884,-0.54576 z m 0.41666,1.59541 -5.00598,1.217 c 0.0864,0.35607 0.16817,0.71317 0.24537,1.07123 l 5.03664,-1.09129 c -0.0871,-0.40028 -0.17914,-0.79928 -0.27603,-1.19694 z m 0.5192,2.38446 -0.67964,0.12955 c 0.035,0.18268 0.069,0.3656 0.10186,0.54877 l 0.68133,-0.12159 c -0.0335,-0.18583 -0.068,-0.37141 -0.10355,-0.55673 z m 0.30381,1.7544 -0.68476,0.10434 c 0.0284,0.18451 0.0557,0.36926 0.0819,0.55422 l 0.68629,-0.0962 c -0.0267,-0.18769 -0.0546,-0.37515 -0.0835,-0.56238 z m 0.23991,1.76933 -1.82151,0.20759 c 0.0208,0.18098 0.0405,0.36213 0.0591,0.54347 l 1.82506,-0.18563 c -0.0198,-0.18868 -0.0407,-0.37716 -0.0626,-0.56543 z m 0.17439,1.78077 -0.6934,0.0523 c 0.0146,0.18706 0.0281,0.37431 0.0405,0.56173 l 0.69457,-0.0438 c -0.0127,-0.19026 -0.0266,-0.38034 -0.0417,-0.57023 z m 0.10777,1.79307 -0.6969,0.0254 c 0.008,0.18813 0.0139,0.37642 0.0191,0.56485 l 0.69791,-0.0167 c -0.006,-0.19134 -0.0122,-0.38252 -0.0201,-0.57352 z"
         sodipodi:type="arc"
         sodipodi:ry="50"
         sodipodi:rx="50"
         sodipodi:cy="148.5"
         sodipodi:cx="105"
         inkscape:path-effect="#path-effect15"
         transform="matrix(9.5781409,0,0,9.5780771,-465.61136,-882.34444)" /><circle
         style="fill:url(#radialGradient4);fill-opacity:1;stroke:none;stroke-width:1.74867;stroke-linejoin:bevel;stroke-opacity:0.719264"
         id="circle3"
         cy="540"
         cx="540"
         inkscape:export-filename="race_tach.png"
         inkscape:export-xdpi="520.19202"
         inkscape:export-ydpi="520.19202"
         r="329.94006" /><path
         style="font-weight:bold;font-size:13.3333px;line-height:1.25;font-family:Inter;-inkscape-font-specification:'Inter Light Italic';white-space:pre;fill:url(#linearGradient16);stroke-width:25.0512"
         d="M 419.26462,664.41897 H 333.80358 V 421.40971 h 86.27646 q 36.53296,0 62.79117,14.67827 26.42104,14.51544 40.61031,41.75214 14.18902,27.07337 14.18902,64.91126 0,38.00072 -14.18902,65.23743 -14.18927,27.23645 -40.77339,41.91497 -26.58438,14.51519 -63.44351,14.51519 z m -35.71755,-42.89348 h 33.27129 q 35.06497,0 53.1685,-18.91894 18.10327,-18.91869 18.10327,-59.85517 0,-40.77339 -18.10327,-59.52925 -17.94045,-18.91894 -52.84233,-18.91894 h -33.59746 z m 191.47185,42.89348 V 421.40971 h 96.38839 q 39.95798,0 60.0185,17.61402 20.22362,17.61403 20.22362,44.85073 0,21.52828 -12.55819,34.73905 -12.3951,13.21052 -31.15096,17.45095 v 2.4475 q 13.69977,0.65133 25.7687,7.82851 12.23202,7.17618 19.73437,20.22361 7.66542,12.88461 7.66542,30.8248 0,19.24511 -9.45934,34.41263 -9.4596,15.16777 -28.05213,23.97479 -18.59277,8.64392 -45.99231,8.64392 z m 49.74374,-40.93647 h 43.05656 q 22.01779,0 31.96638,-8.48085 10.11168,-8.48084 10.11168,-22.3437 0,-15.16777 -11.09018,-25.11637 -10.92735,-9.94884 -29.68321,-9.94884 h -44.36123 z m 0,-99.97623 h 39.30539 q 15.98319,0 26.58437,-8.48084 10.60093,-8.48085 10.60093,-23.15937 0,-13.21052 -9.45934,-21.52828 -9.29627,-8.31776 -26.74746,-8.31776 h -40.28389 z"
         id="text1"
         aria-label="DB" /></g></g></svg>
